PathFileType	4	(X/Y/Z)	12_1_17_p1_0-376_filt_butterworth.trc
DataRate	CameraRate	NumFrames	NumMarkers	Units	OrigDataRate	OrigDataStartFrame	OrigNumFrames
59.0	59.0	6	27	m	59.0	47	376
Frame#	Time	RHip			RKnee			RAnkle			RBigToe			RSmallToe			RHeel			LHip			LKnee			LAnkle			LBigToe			LSmallToe			LHeel			Neck			Head			Nose			RShoulder			RElbow			RWrist			RThumb			RIndex			RPinky			LShoulder			LElbow			LWrist			LThumb			LIndex			LPinky			
		X1	Y1	Z1	X2	Y2	Z2	X3	Y3	Z3	X4	Y4	Z4	X5	Y5	Z5	X6	Y6	Z6	X7	Y7	Z7	X8	Y8	Z8	X9	Y9	Z9	X10	Y10	Z10	X11	Y11	Z11	X12	Y12	Z12	X13	Y13	Z13	X14	Y14	Z14	X15	Y15	Z15	X16	Y16	Z16	X17	Y17	Z17	X18	Y18	Z18	X19	Y19	Z19	X20	Y20	Z20	X21	Y21	Z21	X22	Y22	Z22	X23	Y23	Z23	X24	Y24	Z24	X25	Y25	Z25	X26	Y26	Z26	X27	Y27	Z27	
47	0.7966101694915254	0.42971985777029326	0.49506714956414566	1.0593890954312788	0.47178721057556017	0.5441563293744099	1.5196060504706252	0.48319648239365776	0.6254457479944644	1.9468124475167925	0.4682564903083315	0.36692430356885836	1.9048022121656574	0.5210237387283982	0.41992512686006267	1.922224742913006	0.4665663144060307	0.655487428904113	2.0212030071644485	0.20458372782829615	0.5108063150031458	1.0967593985554889	0.2646186825891803	0.5342981341377359	1.5386375749425318	0.3266687419320534	0.5902744866380325	1.9458877019150256	0.32960477521178905	0.37906262063643825	1.9294430312235236	0.2659550874952166	0.4326282243219263	1.943229526887812	0.34330247372266964	0.6156170821544239	1.9883473710931485	0.23900672339526963	0.5418133571775219	0.4173010502155001	0.2250841194685551	0.5136613967607104	0.1693055755630279	0.2467513415981038	0.4495440488809357	0.28814031920594413	0.4366513580886698	0.5390074623279684	0.5254580978128096	0.4938289769066967	0.4908872732411952	0.8014483209876575	0.3766829406071056	0.31839588879900854	0.9811550161154918	0.3126450923503258	0.31599337785949444	1.0481734261738545	0.2957780259101628	0.32874935614573897	1.0750980317086296	0.29678821239565645	0.33976188937758206	1.0766044378070219	0.0927256286861893	0.5493292705268891	0.5411781499054474	0.09755355811852802	0.4458701553461008	0.8154899326289483	0.25388763084625315	0.3339994034274349	0.9760366774335049	0.3502024937133454	0.27188574738775695	1.0050925661604182	0.35530308362648094	0.2618146756767357	1.0366570467486096	0.31570441234863056	0.3283608522566593	1.0833200605145061
48	0.8135593220338984	0.4296835345927123	0.4951250192239633	1.05995593016566	0.47178471928389465	0.5441030083419401	1.5195905285090525	0.48328101779691546	0.6255666007860666	1.9478895944974548	0.4682896411389279	0.36692326136608555	1.9048161956560625	0.52106143362545	0.4198709518079654	1.9222079018619223	0.46667025694987796	0.6557748778872831	2.023988464371067	0.20451789757769726	0.5108314147753921	1.098154995321341	0.2646956542009586	0.5341878621084857	1.538625321841952	0.3257097341660896	0.5868013950475305	1.9437500580013645	0.32896618693631907	0.3784958202364458	1.928580129956421	0.26713761391534313	0.43390396572737316	1.94382121999105	0.343399013716332	0.6152822868195822	1.9880287905262928	0.23906386102677724	0.541811831757583	0.4173308217334666	0.22506138810147697	0.5137814003274535	0.16888664253956306	0.24785119173952855	0.44634204213937245	0.287741791606274	0.43664486156064003	0.5390477099971862	0.5254941414906084	0.4938377998562212	0.49081916072080933	0.8015132157276941	0.3765817082384801	0.3183487607468334	0.9811483733535241	0.3125842720371256	0.3150868889697243	1.0459680685218267	0.29577526848287683	0.3290530571521765	1.074418959382592	0.29657254686068313	0.33970462509280674	1.0765820539397761	0.09176719096686847	0.5451506506453798	0.540611685286921	0.09764047119588877	0.44593996183327134	0.8154155340680089	0.2539187189884226	0.33392565885100295	0.9760219647664838	0.3511292014093092	0.2688032036686496	1.0037817588266764	0.35540149282170863	0.2618332461659989	1.036697654743374	0.31569622639890005	0.3270344878446785	1.0833733101973637
49	0.8305084745762712	0.42967107743071237	0.495196488877542	1.0603327383596253	0.47179132715055366	0.5441106918427084	1.5195395060219614	0.48329916254449135	0.6255230933074666	1.9478418950183087	0.46840681579403615	0.3671878118749774	1.9049930616975712	0.5210802550130762	0.4197772100331343	1.9221852313058148	0.4662884172935017	0.6559307557382947	2.025502241984166	0.2044365884266274	0.5108374077028037	1.0997216765427253	0.2646586840574377	0.5341196813591721	1.538595953091319	0.32443535722887284	0.5821808854164614	1.9408876635371803	0.32850770976363186	0.3781953880275354	1.9284889953340358	0.2690366290617404	0.43525188681036625	1.9440319225959413	0.3434310924812894	0.6150953428380557	1.987952076673527	0.2392059631863424	0.5418608047103392	0.4179701590923842	0.22541655174963324	0.5126446877990603	0.16810880336965814	0.24828126369570885	0.44504477131442516	0.2875929617257777	0.4366375622444942	0.5390504215541141	0.5255209201366428	0.4938533861488444	0.4907233614420573	0.801523359002705	0.37649830705912846	0.31834079209951166	0.9811756199880644	0.312166806969529	0.3133672478746486	1.0448534604286805	0.2957280461968045	0.3293924450864717	1.0742539916145517	0.2963635928124416	0.33967583880635865	1.0765076014547446	0.0910435936881113	0.5419784700326755	0.5401676216556011	0.09770769569416171	0.44602188929864073	0.8153582354584875	0.25401793666125	0.3337350082889405	0.9759800158329132	0.351523766387077	0.26749389450722316	1.0040455705848634	0.3554415851227813	0.26186054379787455	1.036648705731326	0.3157528304421171	0.32481304393269517	1.0834312057222761
50	0.847457627118644	0.42967698110166075	0.495256624096126	1.0604508615972124	0.47179640504822273	0.5441883820332644	1.5195784194449113	0.48330277288532314	0.6253521940746568	1.9475613351220136	0.46846803137273596	0.3673418002882591	1.9051014544314477	0.5210855777500522	0.4196659613645145	1.9221622754223344	0.46559686476610035	0.6559789483612557	2.0251133076389833	0.20437490332416502	0.5107537899773453	1.1006089427823786	0.26452876439756123	0.5341209186235429	1.5385797923348792	0.32347661004337025	0.5786954819360755	1.9387015371129572	0.3284989580063985	0.3785115971123991	1.9292520293726299	0.27061757870432535	0.43617578642236365	1.9438457819610897	0.3434272324451559	0.6150589999340184	1.9879738169498677	0.23941195885885	0.5420149414775111	0.41938119324033174	0.22632948353599686	0.50916319164421	0.16688187603283403	0.2482961374448298	0.44495868595634186	0.2875783104396763	0.43662707203046913	0.5390174343825711	0.5255165950971771	0.4938494836063091	0.4907065604878973	0.801505601757432	0.37645954533747694	0.3183613643986052	0.9812474411082417	0.3118338577841355	0.3122568688572431	1.0446807735512291	0.29549505963315975	0.32966408210474574	1.0742231277730152	0.2961943497714698	0.3396684934967021	1.0763125593528207	0.09076092774734044	0.5407227394814209	0.5399852116920135	0.09767791178869084	0.4461316111217992	0.8153051648810605	0.25416593663917225	0.33343610002894264	0.9759231313506396	0.3515776479566934	0.2672397653947689	1.0048227752021508	0.3553842593383844	0.26189134604941655	1.0364536202429684	0.316010306840003	0.3233970933395002	1.0834819248222223
51	0.864406779661017	0.42968074227817166	0.4952915842530081	1.060455887387781	0.47176744592363345	0.5442939214565123	1.5200445575007264	0.4831852363417166	0.6250297314860791	1.9473932867697794	0.468476761067113	0.3673789979931953	1.9051391152462356	0.5210885739835815	0.4195768674430065	1.9221476155127195	0.46508610966737995	0.6559462408368039	2.024014659357952	0.2043540940292007	0.5104911228449541	1.1006586440993122	0.2644084441648597	0.5341427401551835	1.5385726435694362	0.32311082602909297	0.5773709302471063	1.9378259232802453	0.3289337379780174	0.37926953914844486	1.9309971192179411	0.2714569209585492	0.4365287569579362	1.9433386210069288	0.34342492869682406	0.6151392083103164	1.9880368316420203	0.2396181855083454	0.5422553330672703	0.42092934822320327	0.2275307587885211	0.5044136468554858	0.16541005477402593	0.24821542481407588	0.44515961415465005	0.28757277595043074	0.4366076500318088	0.5389692796550084	0.5254576539831484	0.49379992469517847	0.49089652491677727	0.8014736715919519	0.3764450283585018	0.31837368217207973	0.9813324581285796	0.3117421744515416	0.31201342696223566	1.0448575095249628	0.2950678372800701	0.32993109866610887	1.0738545399265085	0.2960614591019741	0.3396629262368129	1.0760269625473893	0.09075811399656186	0.5407079595888384	0.5399761658736949	0.09735528199181226	0.44614262708574187	0.815246601303702	0.25420203527817986	0.3331655212369554	0.9759041642448579	0.35146426095386407	0.2675037204737051	1.005307219217975	0.35527639849666354	0.2619231262654817	1.0361570574573982	0.31656674839768706	0.32464517779502317	1.083555110956714
52	0.8813559322033898	0.42965326303252993	0.4953026340119624	1.0604515383913875	0.47167921023755943	0.5443715754011508	1.5211977041925346	0.4827320009634297	0.624633232564175	1.9473145125892848	0.4684717434199005	0.36738823747654925	1.9051606762292785	0.5210828193395773	0.41954954876149964	1.9221468512108002	0.46496939896985007	0.6557028778053873	2.023381633467689	0.20436739193543926	0.5100993941914743	1.100478167480331	0.26435631707487756	0.5341522685050522	1.5385709277171533	0.32311820255582635	0.577412963532485	1.937813334488643	0.32954556959039133	0.37998758178294784	1.9332067487399884	0.2716109343857292	0.43645912604280923	1.9426439702471359	0.3434400342960362	0.6152431396676799	1.9881015083756333	0.23974674945649804	0.542457989134619	0.4219347818890596	0.22843909373885635	0.5007747316288621	0.1643733184573972	0.24817807378773724	0.4452418308337702	0.28762520906285194	0.4365786299834089	0.5389201665626476	0.5253539293052248	0.49372615556780647	0.4912448121160414	0.8014643429168854	0.3764403938560856	0.318376658889336	0.9814052309143159	0.3118023332647722	0.31223002413796125	1.0449953763590702	0.2948015484184369	0.3299252054659558	1.0731565681414723	0.2960313279684513	0.3396636510441316	1.0760277410395038	0.09082306894183802	0.5410445786803546	0.5400204392291612	0.09659109714598645	0.44577967395616	0.8151701564495432	0.2539013130916854	0.33306801143722725	0.9760574406969307	0.3510586243014989	0.26885846711610045	1.0057985034766435	0.35524663667260187	0.261946211323414	1.0361307804029796	0.31726174209406327	0.3277318714334655	1.0837034628972417
